<svg xmlns="http://www.w3.org/2000/svg" viewBox="0 0 512 512">
  <defs>
    <linearGradient id="dusk" x1="0" y1="0" x2="0" y2="1">
      <stop offset="0" stop-color="#2e3460"/>
      <stop offset="0.55" stop-color="#e8704a"/>
      <stop offset="1" stop-color="#e8b94a"/>
    </linearGradient>
  </defs>
  <rect width="512" height="512" fill="url(#dusk)"/>
  <circle cx="400" cy="120" r="34" fill="#fff2c0"/>
  <ellipse cx="256" cy="500" rx="330" ry="110" fill="#1d2419"/>
  <polygon points="60,390 130,230 200,390" fill="#16301a"/>
  <polygon points="150,400 230,200 310,400" fill="#10240f"/>
  <polygon points="330,395 400,250 470,395" fill="#16301a"/>
  <polygon points="180,430 256,300 332,430" fill="#4f8a55"/>
  <polygon points="226,430 256,330 286,430" fill="#23241f"/>
  <rect x="60" y="395" width="120" height="58" rx="14" fill="#c0392b"/>
  <rect x="60" y="385" width="120" height="28" rx="12" fill="#f2f0ea"/>
  <rect x="74" y="389" width="26" height="18" rx="4" fill="#3b5566"/>
  <rect x="108" y="389" width="26" height="18" rx="4" fill="#3b5566"/>
  <circle cx="92" cy="455" r="15" fill="#1d1d1f"/>
  <circle cx="150" cy="455" r="15" fill="#1d1d1f"/>
  <circle cx="370" cy="440" r="14" fill="#e8704a"/>
  <polygon points="370,400 360,428 380,428" fill="#ffb347"/>
</svg>
