<svg xmlns="http://www.w3.org/2000/svg" width="440" height="264" viewBox="0 0 440 264">
  <defs>
    <linearGradient id="bg" x1="0" y1="0" x2="1" y2="1">
      <stop offset="0" stop-color="#2b1030"/><stop offset=".55" stop-color="#5c1830"/><stop offset="1" stop-color="#e04b3c"/>
    </linearGradient>
    <linearGradient id="fl" x1="0" y1="0" x2="0" y2="1">
      <stop offset="0" stop-color="#3a1440"/><stop offset="1" stop-color="#1c0a20"/>
    </linearGradient>
  </defs>
  <rect width="440" height="264" fill="url(#bg)"/>
  <rect y="204" width="440" height="60" fill="url(#fl)"/>
  <g opacity=".25" stroke="#fff" stroke-width="1">
    <line x1="0" y1="204" x2="180" y2="140"/><line x1="440" y1="204" x2="260" y2="140"/>
    <line x1="120" y1="264" x2="205" y2="150"/><line x1="320" y1="264" x2="235" y2="150"/>
  </g>
  <!-- versus characters -->
  <g>
    <rect x="70" y="120" width="40" height="56" rx="8" fill="#2f5fd0"/>
    <rect x="78" y="92" width="24" height="24" rx="6" fill="#f5d3b3"/>
    <rect x="106" y="128" width="46" height="10" rx="5" fill="#caa14e" transform="rotate(-12 106 133)"/>
    <rect x="60" y="176" width="18" height="28" rx="5" fill="#22242c"/><rect x="92" y="176" width="18" height="28" rx="5" fill="#22242c"/>
  </g>
  <g>
    <rect x="330" y="120" width="40" height="56" rx="8" fill="#d4b23c"/>
    <rect x="338" y="92" width="24" height="24" rx="6" fill="#e8b48a"/>
    <rect x="288" y="128" width="46" height="10" rx="5" fill="#33373f" transform="rotate(12 334 133)"/>
    <rect x="330" y="176" width="18" height="28" rx="5" fill="#22242c"/><rect x="362" y="176" width="18" height="28" rx="5" fill="#22242c"/>
  </g>
  <!-- muzzle flashes -->
  <g fill="#ffd24a"><circle cx="160" cy="126" r="7"/><circle cx="280" cy="140" r="7"/>
    <path d="M160 118l4 8-4 8-4-8z"/><path d="M280 132l4 8-4 8-4-8z"/></g>
  <!-- crosshair + VS -->
  <g stroke="#ffffff" stroke-width="5" opacity=".9">
    <circle cx="220" cy="86" r="26" fill="none"/>
    <line x1="220" y1="48" x2="220" y2="66"/><line x1="220" y1="106" x2="220" y2="124"/>
    <line x1="182" y1="86" x2="200" y2="86"/><line x1="240" y1="86" x2="258" y2="86"/>
  </g>
  <text x="220" y="240" text-anchor="middle" font-family="Trebuchet MS, sans-serif" font-weight="bold" font-size="40" fill="#ffffff" letter-spacing="6">RIVALS</text>
</svg>
