<svg xmlns="http://www.w3.org/2000/svg" viewBox="0 0 512 512">
  <defs>
    <linearGradient id="sky" x1="0" y1="0" x2="0" y2="1">
      <stop offset="0" stop-color="#5fc0f0"/>
      <stop offset="1" stop-color="#c4ecff"/>
    </linearGradient>
  </defs>
  <rect width="512" height="512" fill="url(#sky)"/>
  <ellipse cx="256" cy="540" rx="340" ry="130" fill="#6fbf5a"/>
  <circle cx="92" cy="92" r="40" fill="#fff3bf"/>
  <polygon points="118,296 30,250 52,334" fill="#e8862a"/>
  <polygon points="120,316 44,310 70,366" fill="#d2701f"/>
  <circle cx="266" cy="286" r="148" fill="#f2a13a"/>
  <ellipse cx="276" cy="338" rx="92" ry="82" fill="#ffd9a0"/>
  <g transform="rotate(24 186 296)">
    <ellipse cx="186" cy="296" rx="58" ry="92" fill="#e8862a"/>
    <ellipse cx="186" cy="330" rx="40" ry="58" fill="#d2701f"/>
  </g>
  <path d="M300 148 q6 -54 62 -66 q-12 48 -38 70 z" fill="#e8862a"/>
  <circle cx="330" cy="226" r="30" fill="#ffffff"/>
  <circle cx="338" cy="230" r="16" fill="#22242c"/>
  <circle cx="344" cy="224" r="5" fill="#ffffff"/>
  <polygon points="396,238 478,262 396,290" fill="#ffd24a"/>
  <polygon points="396,266 452,272 396,290" fill="#e8b32a"/>
  <rect x="232" y="420" width="14" height="34" rx="7" fill="#e8b32a"/>
  <rect x="286" y="420" width="14" height="34" rx="7" fill="#e8b32a"/>
</svg>
